<svg width="14" height="15" viewBox="0 0 14 15" fill="none" xmlns="http://www.w3.org/2000/svg">
<path d="M13.4277 5.80673C13.4277 5.92413 13.3582 6.05221 13.2194 6.19096L10.3114 9.02466L11.0004 13.0271C11.0057 13.0644 11.0084 13.1178 11.0084 13.1872C11.0084 13.2992 10.9804 13.394 10.9243 13.4713C10.8682 13.5487 10.7868 13.5874 10.6799 13.5874C10.5785 13.5874 10.4717 13.5554 10.3595 13.4913L6.76266 11.6022L3.1658 13.4913C3.04831 13.5554 2.9415 13.5874 2.84537 13.5874C2.73322 13.5874 2.6491 13.5487 2.59303 13.4713C2.53695 13.394 2.50891 13.2992 2.50891 13.1872C2.50891 13.1551 2.51425 13.1018 2.52493 13.0271L3.21386 9.02466L0.297927 6.19096C0.164413 6.04687 0.0976562 5.9188 0.0976562 5.80673C0.0976562 5.60928 0.247192 5.48654 0.546262 5.43851L4.56769 4.85416L6.37013 1.21197C6.4716 0.993171 6.60244 0.883772 6.76266 0.883772C6.92287 0.883772 7.05372 0.993171 7.15519 1.21197L8.95762 4.85416L12.9791 5.43851C13.2781 5.48654 13.4277 5.60928 13.4277 5.80673Z" fill="#777777"/>
</svg>
