<svg width="14" height="15" viewBox="0 0 14 15" fill="none" xmlns="http://www.w3.org/2000/svg">
<path d="M13.4277 5.40538C13.4277 5.52287 13.3582 5.65104 13.2194 5.7899L10.3114 8.62573L11.0004 12.6311C11.0057 12.6685 11.0084 12.7219 11.0084 12.7914C11.0084 12.9035 10.9804 12.9983 10.9243 13.0757C10.8682 13.1532 10.7868 13.1919 10.6799 13.1919C10.5785 13.1919 10.4717 13.1599 10.3595 13.0958L6.76266 11.2052L3.1658 13.0958C3.04831 13.1599 2.9415 13.1919 2.84537 13.1919C2.73322 13.1919 2.6491 13.1532 2.59303 13.0757C2.53695 12.9983 2.50891 12.9035 2.50891 12.7914C2.50891 12.7593 2.51425 12.7059 2.52493 12.6311L3.21386 8.62573L0.297927 5.7899C0.164413 5.6457 0.0976562 5.51753 0.0976562 5.40538C0.0976562 5.20778 0.247192 5.08495 0.546262 5.03688L4.56769 4.45209L6.37013 0.80717C6.4716 0.588208 6.60244 0.478727 6.76266 0.478727C6.92287 0.478727 7.05372 0.588208 7.15519 0.80717L8.95762 4.45209L12.9791 5.03688C13.2781 5.08495 13.4277 5.20778 13.4277 5.40538Z" fill="#777777"/>
</svg>
