<svg width="14" height="15" viewBox="0 0 14 15" fill="none" xmlns="http://www.w3.org/2000/svg">
<path d="M13.445 5.80528C13.445 5.92277 13.3756 6.05095 13.2369 6.1898L10.3311 9.02563L11.0195 13.031C11.0249 13.0684 11.0275 13.1218 11.0275 13.1913C11.0275 13.3034 10.9995 13.3982 10.9435 13.4756C10.8875 13.5531 10.8061 13.5918 10.6994 13.5918C10.598 13.5918 10.4912 13.5598 10.3792 13.4957L6.785 11.6051L3.19084 13.4957C3.07344 13.5598 2.96671 13.5918 2.87065 13.5918C2.75858 13.5918 2.67453 13.5531 2.6185 13.4756C2.56246 13.3982 2.53445 13.3034 2.53445 13.1913C2.53445 13.1592 2.53978 13.1058 2.55046 13.031L3.23887 9.02563L0.32512 6.1898C0.191707 6.04561 0.125 5.91743 0.125 5.80528C0.125 5.60768 0.274423 5.48485 0.573269 5.43678L4.59168 4.85199L6.39276 1.20707C6.49416 0.988109 6.6249 0.878628 6.785 0.878628C6.9451 0.878628 7.07584 0.988109 7.17724 1.20707L8.97832 4.85199L12.9967 5.43678C13.2956 5.48485 13.445 5.60768 13.445 5.80528Z" fill="#F27D0C"/>
</svg>
