<svg width="14" height="15" viewBox="0 0 14 15" fill="none" xmlns="http://www.w3.org/2000/svg">
<path d="M13.445 5.40538C13.445 5.52287 13.3756 5.65104 13.2369 5.7899L10.3311 8.62573L11.0195 12.6311C11.0249 12.6685 11.0275 12.7219 11.0275 12.7914C11.0275 12.9035 10.9995 12.9983 10.9435 13.0757C10.8875 13.1532 10.8061 13.1919 10.6994 13.1919C10.598 13.1919 10.4912 13.1599 10.3792 13.0958L6.785 11.2052L3.19084 13.0958C3.07344 13.1599 2.96671 13.1919 2.87065 13.1919C2.75858 13.1919 2.67453 13.1532 2.6185 13.0757C2.56246 12.9983 2.53445 12.9035 2.53445 12.7914C2.53445 12.7593 2.53978 12.7059 2.55046 12.6311L3.23887 8.62573L0.32512 5.7899C0.191707 5.6457 0.125 5.51753 0.125 5.40538C0.125 5.20778 0.274423 5.08495 0.573269 5.03688L4.59168 4.45209L6.39276 0.807169C6.49416 0.588207 6.6249 0.478725 6.785 0.478725C6.9451 0.478725 7.07584 0.588207 7.17724 0.807169L8.97832 4.45209L12.9967 5.03688C13.2956 5.08495 13.445 5.20778 13.445 5.40538Z" fill="#F27D0C"/>
</svg>
