<svg width="15" height="15" viewBox="0 0 15 15" fill="none" xmlns="http://www.w3.org/2000/svg">
<path d="M14.1208 5.80673C14.1208 5.92413 14.0514 6.05221 13.9127 6.19096L11.0069 9.02466L11.6953 13.0271C11.7007 13.0644 11.7033 13.1178 11.7033 13.1872C11.7033 13.2992 11.6753 13.394 11.6193 13.4713C11.5632 13.5487 11.4819 13.5874 11.3751 13.5874C11.2737 13.5874 11.167 13.5554 11.0549 13.4913L7.46078 11.6022L3.86662 13.4913C3.74922 13.5554 3.64249 13.5874 3.54643 13.5874C3.43436 13.5874 3.35031 13.5487 3.29428 13.4713C3.23825 13.394 3.21023 13.2992 3.21023 13.1872C3.21023 13.1551 3.21556 13.1018 3.22624 13.0271L3.91465 9.02466L1.0009 6.19096C0.867488 6.04687 0.800781 5.9188 0.800781 5.80673C0.800781 5.60928 0.950204 5.48654 1.24905 5.43851L5.26746 4.85416L7.06855 1.21197C7.16994 0.993171 7.30069 0.883772 7.46078 0.883772C7.62088 0.883772 7.75162 0.993171 7.85302 1.21197L9.6541 4.85416L13.6725 5.43851C13.9714 5.48654 14.1208 5.60928 14.1208 5.80673Z" fill="#F27D0C"/>
</svg>
