<svg width="15" height="15" viewBox="0 0 15 15" fill="none" xmlns="http://www.w3.org/2000/svg">
<path d="M14.1308 5.40538C14.1308 5.52287 14.0614 5.65104 13.9225 5.7899L11.0146 8.62573L11.7035 12.6311C11.7088 12.6685 11.7115 12.7219 11.7115 12.7914C11.7115 12.9035 11.6835 12.9983 11.6274 13.0757C11.5713 13.1532 11.4899 13.1919 11.3831 13.1919C11.2816 13.1919 11.1748 13.1599 11.0626 13.0958L7.46578 11.2052L3.86892 13.0958C3.75143 13.1599 3.64462 13.1919 3.54849 13.1919C3.43634 13.1919 3.35223 13.1532 3.29615 13.0757C3.24008 12.9983 3.21204 12.9035 3.21204 12.7914C3.21204 12.7593 3.21738 12.7059 3.22806 12.6311L3.91699 8.62573L1.00105 5.7899C0.867538 5.6457 0.800781 5.51753 0.800781 5.40538C0.800781 5.20778 0.950317 5.08495 1.24939 5.03688L5.27082 4.45209L7.07325 0.80717C7.17472 0.588208 7.30557 0.478727 7.46578 0.478727C7.626 0.478727 7.75684 0.588208 7.85831 0.80717L9.66075 4.45209L13.6822 5.03688C13.9812 5.08495 14.1308 5.20778 14.1308 5.40538Z" fill="#F27D0C"/>
</svg>
