<svg width="14" height="15" viewBox="0 0 14 15" fill="none" xmlns="http://www.w3.org/2000/svg">
<path d="M13.455 5.40538C13.455 5.52287 13.3856 5.65104 13.2467 5.7899L10.3388 8.62573L11.0277 12.6311C11.0331 12.6685 11.0357 12.7219 11.0357 12.7914C11.0357 12.9035 11.0077 12.9983 10.9516 13.0757C10.8955 13.1532 10.8141 13.1919 10.7073 13.1919C10.6058 13.1919 10.499 13.1599 10.3869 13.0958L6.79 11.2052L3.19314 13.0958C3.07565 13.1599 2.96884 13.1919 2.87271 13.1919C2.76056 13.1919 2.67645 13.1532 2.62037 13.0757C2.56429 12.9983 2.53626 12.9035 2.53626 12.7914C2.53626 12.7593 2.5416 12.7059 2.55228 12.6311L3.24121 8.62573L0.32527 5.7899C0.191757 5.6457 0.125 5.51753 0.125 5.40538C0.125 5.20778 0.274535 5.08495 0.573606 5.03688L4.59504 4.45209L6.39747 0.80717C6.49894 0.588208 6.62978 0.478727 6.79 0.478727C6.95022 0.478727 7.08106 0.588208 7.18253 0.80717L8.98496 4.45209L13.0064 5.03688C13.3055 5.08495 13.455 5.20778 13.455 5.40538Z" fill="#F27D0C"/>
</svg>
