<svg width="15" height="15" viewBox="0 0 15 15" fill="none" xmlns="http://www.w3.org/2000/svg">
<path d="M14.1308 5.40683C14.1308 5.52423 14.0614 5.65231 13.9225 5.79106L11.0146 8.62476L11.7035 12.6272C11.7088 12.6645 11.7115 12.7179 11.7115 12.7873C11.7115 12.8993 11.6835 12.9941 11.6274 13.0714C11.5713 13.1488 11.4899 13.1875 11.3831 13.1875C11.2816 13.1875 11.1748 13.1555 11.0626 13.0914L7.46578 11.2023L3.86892 13.0914C3.75143 13.1555 3.64462 13.1875 3.54849 13.1875C3.43634 13.1875 3.35223 13.1488 3.29615 13.0714C3.24008 12.9941 3.21204 12.8993 3.21204 12.7873C3.21204 12.7552 3.21738 12.7019 3.22806 12.6272L3.91699 8.62476L1.00105 5.79106C0.867538 5.64697 0.800781 5.51889 0.800781 5.40683C0.800781 5.20937 0.950317 5.08663 1.24939 5.03861L5.27082 4.45425L7.07325 0.812067C7.17472 0.593269 7.30557 0.48387 7.46578 0.48387C7.626 0.48387 7.75684 0.593269 7.85831 0.812067L9.66075 4.45425L13.6822 5.03861C13.9812 5.08663 14.1308 5.20937 14.1308 5.40683Z" fill="#F27D0C"/>
</svg>
