<svg width="15" height="15" viewBox="0 0 15 15" fill="none" xmlns="http://www.w3.org/2000/svg">
<path d="M14.0915 5.40683C14.0915 5.52423 14.0221 5.65231 13.8834 5.79106L10.9776 8.62476L11.666 12.6272C11.6714 12.6645 11.674 12.7179 11.674 12.7873C11.674 12.8993 11.646 12.9941 11.59 13.0714C11.5339 13.1488 11.4526 13.1875 11.3458 13.1875C11.2444 13.1875 11.1377 13.1555 11.0256 13.0914L7.43148 11.2023L3.83733 13.0914C3.71992 13.1555 3.61319 13.1875 3.51713 13.1875C3.40507 13.1875 3.32102 13.1488 3.26498 13.0714C3.20895 12.9941 3.18093 12.8993 3.18093 12.7873C3.18093 12.7552 3.18627 12.7019 3.19694 12.6272L3.88535 8.62476L0.971605 5.79106C0.838191 5.64697 0.771484 5.51889 0.771484 5.40683C0.771484 5.20937 0.920907 5.08663 1.21975 5.03861L5.23817 4.45425L7.03925 0.812067C7.14064 0.593269 7.27139 0.48387 7.43148 0.48387C7.59158 0.48387 7.72233 0.593269 7.82372 0.812067L9.6248 4.45425L13.6432 5.03861C13.9421 5.08663 14.0915 5.20937 14.0915 5.40683Z" fill="#F27D0C"/>
</svg>
