<svg width="14" height="15" viewBox="0 0 14 15" fill="none" xmlns="http://www.w3.org/2000/svg">
<path d="M13.4177 5.40683C13.4177 5.52423 13.3483 5.65231 13.2095 5.79106L10.3038 8.62476L10.9922 12.6272C10.9975 12.6645 11.0002 12.7179 11.0002 12.7873C11.0002 12.8993 10.9722 12.9941 10.9162 13.0714C10.8601 13.1488 10.7787 13.1875 10.672 13.1875C10.5706 13.1875 10.4639 13.1555 10.3518 13.0914L6.75766 11.2023L3.1635 13.0914C3.04609 13.1555 2.93936 13.1875 2.84331 13.1875C2.73124 13.1875 2.64719 13.1488 2.59115 13.0714C2.53512 12.9941 2.5071 12.8993 2.5071 12.7873C2.5071 12.7552 2.51244 12.7019 2.52311 12.6272L3.21153 8.62476L0.297776 5.79106C0.164363 5.64697 0.0976562 5.51889 0.0976562 5.40683C0.0976562 5.20937 0.247079 5.08663 0.545925 5.03861L4.56434 4.45425L6.36542 0.812067C6.46682 0.593269 6.59756 0.48387 6.75766 0.48387C6.91775 0.48387 7.0485 0.593269 7.14989 0.812067L8.95097 4.45425L12.9694 5.03861C13.2682 5.08663 13.4177 5.20937 13.4177 5.40683Z" fill="#777777"/>
</svg>
