<svg width="15" height="15" viewBox="0 0 15 15" fill="none" xmlns="http://www.w3.org/2000/svg">
<path d="M14.1208 5.40683C14.1208 5.52423 14.0514 5.65231 13.9127 5.79106L11.0069 8.62476L11.6953 12.6272C11.7007 12.6645 11.7033 12.7179 11.7033 12.7873C11.7033 12.8993 11.6753 12.9941 11.6193 13.0714C11.5632 13.1488 11.4819 13.1875 11.3751 13.1875C11.2737 13.1875 11.167 13.1555 11.0549 13.0914L7.46078 11.2023L3.86662 13.0914C3.74922 13.1555 3.64249 13.1875 3.54643 13.1875C3.43436 13.1875 3.35031 13.1488 3.29428 13.0714C3.23825 12.9941 3.21023 12.8993 3.21023 12.7873C3.21023 12.7552 3.21556 12.7019 3.22624 12.6272L3.91465 8.62476L1.0009 5.79106C0.867488 5.64697 0.800781 5.51889 0.800781 5.40683C0.800781 5.20937 0.950204 5.08663 1.24905 5.03861L5.26746 4.45425L7.06855 0.812067C7.16994 0.593269 7.30069 0.48387 7.46078 0.48387C7.62088 0.48387 7.75162 0.593269 7.85302 0.812067L9.6541 4.45425L13.6725 5.03861C13.9714 5.08663 14.1208 5.20937 14.1208 5.40683Z" fill="#F27D0C"/>
</svg>
