<svg width="14" height="15" viewBox="0 0 14 15" fill="none" xmlns="http://www.w3.org/2000/svg">
<path d="M13.4277 5.80528C13.4277 5.92277 13.3582 6.05095 13.2194 6.1898L10.3114 9.02563L11.0004 13.031C11.0057 13.0684 11.0084 13.1218 11.0084 13.1913C11.0084 13.3034 10.9804 13.3982 10.9243 13.4756C10.8682 13.5531 10.7868 13.5918 10.6799 13.5918C10.5785 13.5918 10.4717 13.5598 10.3595 13.4957L6.76266 11.6051L3.1658 13.4957C3.04831 13.5598 2.9415 13.5918 2.84537 13.5918C2.73322 13.5918 2.6491 13.5531 2.59303 13.4756C2.53695 13.3982 2.50891 13.3034 2.50891 13.1913C2.50891 13.1592 2.51425 13.1058 2.52493 13.031L3.21386 9.02563L0.297927 6.1898C0.164413 6.04561 0.0976562 5.91743 0.0976562 5.80528C0.0976562 5.60768 0.247192 5.48485 0.546262 5.43678L4.56769 4.85199L6.37013 1.20707C6.4716 0.98811 6.60244 0.878629 6.76266 0.878629C6.92287 0.878629 7.05372 0.98811 7.15519 1.20707L8.95762 4.85199L12.9791 5.43678C13.2781 5.48485 13.4277 5.60768 13.4277 5.80528Z" fill="#F27D0C"/>
</svg>
