<svg width="14" height="15" viewBox="0 0 14 15" fill="none" xmlns="http://www.w3.org/2000/svg">
<path d="M13.445 5.80673C13.445 5.92413 13.3756 6.05221 13.2369 6.19096L10.3311 9.02466L11.0195 13.0271C11.0249 13.0644 11.0275 13.1178 11.0275 13.1872C11.0275 13.2992 10.9995 13.394 10.9435 13.4713C10.8875 13.5487 10.8061 13.5874 10.6994 13.5874C10.598 13.5874 10.4912 13.5554 10.3792 13.4913L6.785 11.6022L3.19084 13.4913C3.07344 13.5554 2.96671 13.5874 2.87065 13.5874C2.75858 13.5874 2.67453 13.5487 2.6185 13.4713C2.56246 13.394 2.53445 13.2992 2.53445 13.1872C2.53445 13.1551 2.53978 13.1018 2.55046 13.0271L3.23887 9.02466L0.32512 6.19096C0.191707 6.04687 0.125 5.9188 0.125 5.80673C0.125 5.60928 0.274423 5.48654 0.573269 5.43851L4.59168 4.85416L6.39276 1.21197C6.49416 0.993171 6.6249 0.883772 6.785 0.883772C6.9451 0.883772 7.07584 0.993171 7.17724 1.21197L8.97832 4.85416L12.9967 5.43851C13.2956 5.48654 13.445 5.60928 13.445 5.80673Z" fill="#F27D0C"/>
</svg>
