<svg width="14" height="15" viewBox="0 0 14 15" fill="none" xmlns="http://www.w3.org/2000/svg">
<path d="M13.445 5.40683C13.445 5.52423 13.3756 5.65231 13.2369 5.79106L10.3311 8.62476L11.0195 12.6272C11.0249 12.6645 11.0275 12.7179 11.0275 12.7873C11.0275 12.8993 10.9995 12.9941 10.9435 13.0714C10.8875 13.1488 10.8061 13.1875 10.6994 13.1875C10.598 13.1875 10.4912 13.1555 10.3792 13.0914L6.785 11.2023L3.19084 13.0914C3.07344 13.1555 2.96671 13.1875 2.87065 13.1875C2.75858 13.1875 2.67453 13.1488 2.6185 13.0714C2.56246 12.9941 2.53445 12.8993 2.53445 12.7873C2.53445 12.7552 2.53978 12.7019 2.55046 12.6272L3.23887 8.62476L0.32512 5.79106C0.191707 5.64697 0.125 5.51889 0.125 5.40683C0.125 5.20937 0.274423 5.08663 0.573269 5.03861L4.59168 4.45425L6.39276 0.812067C6.49416 0.593269 6.6249 0.48387 6.785 0.48387C6.9451 0.48387 7.07584 0.593269 7.17724 0.812067L8.97832 4.45425L12.9967 5.03861C13.2956 5.08663 13.445 5.20937 13.445 5.40683Z" fill="#F27D0C"/>
</svg>
