<svg width="17" height="51" viewBox="0 0 17 51" fill="none" xmlns="http://www.w3.org/2000/svg">
<path d="M15.2109 23.2979C15.3021 23.389 15.3477 23.4938 15.3477 23.6123C15.3477 23.7308 15.3021 23.8356 15.2109 23.9268L8.83984 30.2979C8.7487 30.389 8.64388 30.4346 8.52539 30.4346C8.4069 30.4346 8.30208 30.389 8.21094 30.2979L1.83984 23.9268C1.7487 23.8356 1.70312 23.7308 1.70312 23.6123C1.70312 23.4938 1.7487 23.389 1.83984 23.2979L2.52344 22.6143C2.61458 22.5231 2.7194 22.4775 2.83789 22.4775C2.95638 22.4775 3.0612 22.5231 3.15234 22.6143L8.52539 27.9873L13.8984 22.6143C13.9896 22.5231 14.0944 22.4775 14.2129 22.4775C14.3314 22.4775 14.4362 22.5231 14.5273 22.6143L15.2109 23.2979Z" fill="#777777"/>
</svg>
