<svg width="14" height="15" viewBox="0 0 14 15" fill="none" xmlns="http://www.w3.org/2000/svg">
<path d="M13.4277 5.40683C13.4277 5.52423 13.3582 5.65231 13.2194 5.79106L10.3114 8.62476L11.0004 12.6272C11.0057 12.6645 11.0084 12.7179 11.0084 12.7873C11.0084 12.8993 10.9804 12.9941 10.9243 13.0714C10.8682 13.1488 10.7868 13.1875 10.6799 13.1875C10.5785 13.1875 10.4717 13.1555 10.3595 13.0914L6.76266 11.2023L3.1658 13.0914C3.04831 13.1555 2.9415 13.1875 2.84537 13.1875C2.73322 13.1875 2.6491 13.1488 2.59303 13.0714C2.53695 12.9941 2.50891 12.8993 2.50891 12.7873C2.50891 12.7552 2.51425 12.7019 2.52493 12.6272L3.21386 8.62476L0.297927 5.79106C0.164413 5.64697 0.0976562 5.51889 0.0976562 5.40683C0.0976562 5.20937 0.247192 5.08663 0.546262 5.03861L4.56769 4.45425L6.37013 0.812067C6.4716 0.593269 6.60244 0.48387 6.76266 0.48387C6.92287 0.48387 7.05372 0.593269 7.15519 0.812067L8.95762 4.45425L12.9791 5.03861C13.2781 5.08663 13.4277 5.20937 13.4277 5.40683Z" fill="#777777"/>
</svg>
