<svg width="24" height="24" viewBox="0 0 24 24" fill="none" xmlns="http://www.w3.org/2000/svg">
<path d="M20.2738 22.6814H15.3863C14.0566 22.6814 12.9785 21.6033 12.9785 20.2736V13.697C12.9785 13.3017 13.302 12.9783 13.6973 12.9783H20.2738C21.6035 12.9783 22.6816 14.0564 22.6816 15.3861V20.2736C22.6816 21.6033 21.6035 22.6814 20.2738 22.6814ZM14.416 14.4158V20.2736C14.416 20.8126 14.8473 21.2439 15.3863 21.2439H20.2738C20.8129 21.2439 21.2441 20.8126 21.2441 20.2736V15.3861C21.2441 14.847 20.8129 14.4158 20.2738 14.4158H14.416Z" fill="#777777"/>
<path d="M8.41445 22.6814H3.52695C2.19727 22.6814 1.11914 21.6033 1.11914 20.2736V15.3861C1.11914 14.0564 2.19727 12.9783 3.52695 12.9783H10.1035C10.4988 12.9783 10.8223 13.3017 10.8223 13.697V20.2736C10.8223 21.6033 9.74414 22.6814 8.41445 22.6814ZM3.52695 14.4158C2.98789 14.4158 2.55664 14.847 2.55664 15.3861V20.2736C2.55664 20.8126 2.98789 21.2439 3.52695 21.2439H8.41445C8.95352 21.2439 9.38477 20.8126 9.38477 20.2736V14.4158H3.52695Z" fill="#777777"/>
<path d="M20.2738 10.822H13.6973C13.302 10.822 12.9785 10.4986 12.9785 10.1033V3.52671C12.9785 2.19702 14.0566 1.1189 15.3863 1.1189H20.2738C21.6035 1.1189 22.6816 2.19702 22.6816 3.52671V8.41421C22.6816 9.7439 21.6035 10.822 20.2738 10.822ZM14.416 9.38452H20.2738C20.8129 9.38452 21.2441 8.95327 21.2441 8.41421V3.52671C21.2441 2.98765 20.8129 2.5564 20.2738 2.5564H15.3863C14.8473 2.5564 14.416 2.98765 14.416 3.52671V9.38452Z" fill="#777777"/>
<path d="M10.1035 10.822H3.52695C2.19727 10.822 1.11914 9.7439 1.11914 8.41421V3.52671C1.11914 2.19702 2.19727 1.1189 3.52695 1.1189H8.41445C9.74414 1.1189 10.8223 2.19702 10.8223 3.52671V10.1033C10.8223 10.4986 10.4988 10.822 10.1035 10.822ZM3.52695 2.5564C2.98789 2.5564 2.55664 2.98765 2.55664 3.52671V8.41421C2.55664 8.95327 2.98789 9.38452 3.52695 9.38452H9.38477V3.52671C9.38477 2.98765 8.95352 2.5564 8.41445 2.5564H3.52695Z" fill="#777777"/>
</svg>
