<svg width="14" height="15" viewBox="0 0 14 15" fill="none" xmlns="http://www.w3.org/2000/svg">
<path d="M13.4177 5.80673C13.4177 5.92413 13.3483 6.05221 13.2095 6.19096L10.3038 9.02466L10.9922 13.0271C10.9975 13.0644 11.0002 13.1178 11.0002 13.1872C11.0002 13.2992 10.9722 13.394 10.9162 13.4713C10.8601 13.5487 10.7787 13.5874 10.672 13.5874C10.5706 13.5874 10.4639 13.5554 10.3518 13.4913L6.75766 11.6022L3.1635 13.4913C3.04609 13.5554 2.93936 13.5874 2.84331 13.5874C2.73124 13.5874 2.64719 13.5487 2.59115 13.4713C2.53512 13.394 2.5071 13.2992 2.5071 13.1872C2.5071 13.1551 2.51244 13.1018 2.52311 13.0271L3.21153 9.02466L0.297776 6.19096C0.164363 6.04687 0.0976562 5.9188 0.0976562 5.80673C0.0976562 5.60928 0.247079 5.48654 0.545925 5.43851L4.56434 4.85416L6.36542 1.21197C6.46682 0.993171 6.59756 0.883772 6.75766 0.883772C6.91775 0.883772 7.0485 0.993171 7.14989 1.21197L8.95097 4.85416L12.9694 5.43851C13.2682 5.48654 13.4177 5.60928 13.4177 5.80673Z" fill="#777777"/>
</svg>
