<svg width="14" height="15" viewBox="0 0 14 15" fill="none" xmlns="http://www.w3.org/2000/svg">
<path d="M13.7792 5.40683C13.7792 5.52423 13.7098 5.65231 13.5709 5.79106L10.663 8.62476L11.3519 12.6272C11.3573 12.6645 11.36 12.7179 11.36 12.7873C11.36 12.8993 11.3319 12.9941 11.2758 13.0714C11.2198 13.1488 11.1383 13.1875 11.0315 13.1875C10.93 13.1875 10.8232 13.1555 10.7111 13.0914L7.11422 11.2023L3.51736 13.0914C3.39987 13.1555 3.29306 13.1875 3.19693 13.1875C3.08478 13.1875 3.00066 13.1488 2.94459 13.0714C2.88851 12.9941 2.86047 12.8993 2.86047 12.7873C2.86047 12.7552 2.86582 12.7019 2.8765 12.6272L3.56543 8.62476L0.649489 5.79106C0.515976 5.64697 0.449219 5.51889 0.449219 5.40683C0.449219 5.20937 0.598754 5.08663 0.897825 5.03861L4.91926 4.45425L6.72169 0.812067C6.82316 0.593269 6.954 0.48387 7.11422 0.48387C7.27444 0.48387 7.40528 0.593269 7.50675 0.812067L9.30918 4.45425L13.3306 5.03861C13.6297 5.08663 13.7792 5.20937 13.7792 5.40683Z" fill="#777777"/>
</svg>
