<svg width="14" height="15" viewBox="0 0 14 15" fill="none" xmlns="http://www.w3.org/2000/svg">
<path d="M13.455 5.80528C13.455 5.92277 13.3856 6.05095 13.2467 6.1898L10.3388 9.02563L11.0277 13.031C11.0331 13.0684 11.0357 13.1218 11.0357 13.1913C11.0357 13.3034 11.0077 13.3982 10.9516 13.4756C10.8955 13.5531 10.8141 13.5918 10.7073 13.5918C10.6058 13.5918 10.499 13.5598 10.3869 13.4957L6.79 11.6051L3.19314 13.4957C3.07565 13.5598 2.96884 13.5918 2.87271 13.5918C2.76056 13.5918 2.67645 13.5531 2.62037 13.4756C2.56429 13.3982 2.53626 13.3034 2.53626 13.1913C2.53626 13.1592 2.5416 13.1058 2.55228 13.031L3.24121 9.02563L0.32527 6.1898C0.191757 6.04561 0.125 5.91743 0.125 5.80528C0.125 5.60768 0.274535 5.48485 0.573606 5.43678L4.59504 4.85199L6.39747 1.20707C6.49894 0.98811 6.62978 0.878629 6.79 0.878629C6.95022 0.878629 7.08106 0.98811 7.18253 1.20707L8.98496 4.85199L13.0064 5.43678C13.3055 5.48485 13.455 5.60768 13.455 5.80528Z" fill="#F27D0C"/>
</svg>
