<svg width="14" height="15" viewBox="0 0 14 15" fill="none" xmlns="http://www.w3.org/2000/svg">
<path d="M13.7792 5.80673C13.7792 5.92413 13.7098 6.05221 13.5709 6.19096L10.663 9.02466L11.3519 13.0271C11.3573 13.0644 11.36 13.1178 11.36 13.1872C11.36 13.2992 11.3319 13.394 11.2758 13.4713C11.2198 13.5487 11.1383 13.5874 11.0315 13.5874C10.93 13.5874 10.8232 13.5554 10.7111 13.4913L7.11422 11.6022L3.51736 13.4913C3.39987 13.5554 3.29306 13.5874 3.19693 13.5874C3.08478 13.5874 3.00066 13.5487 2.94459 13.4713C2.88851 13.394 2.86047 13.2992 2.86047 13.1872C2.86047 13.1551 2.86582 13.1018 2.8765 13.0271L3.56543 9.02466L0.649489 6.19096C0.515976 6.04687 0.449219 5.9188 0.449219 5.80673C0.449219 5.60928 0.598754 5.48654 0.897825 5.43851L4.91926 4.85416L6.72169 1.21197C6.82316 0.993171 6.954 0.883772 7.11422 0.883772C7.27444 0.883772 7.40528 0.993171 7.50675 1.21197L9.30918 4.85416L13.3306 5.43851C13.6297 5.48654 13.7792 5.60928 13.7792 5.80673Z" fill="#777777"/>
</svg>
