<svg width="15" height="15" viewBox="0 0 15 15" fill="none" xmlns="http://www.w3.org/2000/svg">
<path d="M14.0915 5.40538C14.0915 5.52287 14.0221 5.65104 13.8834 5.7899L10.9776 8.62573L11.666 12.6311C11.6714 12.6685 11.674 12.7219 11.674 12.7914C11.674 12.9035 11.646 12.9983 11.59 13.0757C11.5339 13.1532 11.4526 13.1919 11.3458 13.1919C11.2444 13.1919 11.1377 13.1599 11.0256 13.0958L7.43148 11.2052L3.83733 13.0958C3.71992 13.1599 3.61319 13.1919 3.51713 13.1919C3.40507 13.1919 3.32102 13.1532 3.26498 13.0757C3.20895 12.9983 3.18093 12.9035 3.18093 12.7914C3.18093 12.7593 3.18627 12.7059 3.19694 12.6311L3.88535 8.62573L0.971605 5.7899C0.838191 5.6457 0.771484 5.51753 0.771484 5.40538C0.771484 5.20778 0.920907 5.08495 1.21975 5.03688L5.23817 4.45209L7.03925 0.807169C7.14064 0.588207 7.27139 0.478725 7.43148 0.478725C7.59158 0.478725 7.72233 0.588207 7.82372 0.807169L9.6248 4.45209L13.6432 5.03688C13.9421 5.08495 14.0915 5.20778 14.0915 5.40538Z" fill="#F27D0C"/>
</svg>
