<svg width="14" height="15" viewBox="0 0 14 15" fill="none" xmlns="http://www.w3.org/2000/svg">
<path d="M13.7792 5.80528C13.7792 5.92277 13.7098 6.05095 13.5709 6.1898L10.663 9.02563L11.3519 13.031C11.3573 13.0684 11.36 13.1218 11.36 13.1913C11.36 13.3034 11.3319 13.3982 11.2758 13.4756C11.2198 13.5531 11.1383 13.5918 11.0315 13.5918C10.93 13.5918 10.8232 13.5598 10.7111 13.4957L7.11422 11.6051L3.51736 13.4957C3.39987 13.5598 3.29306 13.5918 3.19693 13.5918C3.08478 13.5918 3.00066 13.5531 2.94459 13.4756C2.88851 13.3982 2.86047 13.3034 2.86047 13.1913C2.86047 13.1592 2.86582 13.1058 2.8765 13.031L3.56543 9.02563L0.649489 6.1898C0.515976 6.04561 0.449219 5.91743 0.449219 5.80528C0.449219 5.60768 0.598754 5.48485 0.897825 5.43678L4.91926 4.85199L6.72169 1.20707C6.82316 0.98811 6.954 0.878629 7.11422 0.878629C7.27444 0.878629 7.40528 0.98811 7.50675 1.20707L9.30918 4.85199L13.3306 5.43678C13.6297 5.48485 13.7792 5.60768 13.7792 5.80528Z" fill="#F27D0C"/>
</svg>
