<svg width="15" height="15" viewBox="0 0 15 15" fill="none" xmlns="http://www.w3.org/2000/svg">
<path d="M14.0915 5.80528C14.0915 5.92277 14.0221 6.05095 13.8834 6.1898L10.9776 9.02563L11.666 13.031C11.6714 13.0684 11.674 13.1218 11.674 13.1913C11.674 13.3034 11.646 13.3982 11.59 13.4756C11.5339 13.5531 11.4526 13.5918 11.3458 13.5918C11.2444 13.5918 11.1377 13.5598 11.0256 13.4957L7.43148 11.6051L3.83733 13.4957C3.71992 13.5598 3.61319 13.5918 3.51713 13.5918C3.40507 13.5918 3.32102 13.5531 3.26498 13.4756C3.20895 13.3982 3.18093 13.3034 3.18093 13.1913C3.18093 13.1592 3.18627 13.1058 3.19694 13.031L3.88535 9.02563L0.971605 6.1898C0.838191 6.04561 0.771484 5.91743 0.771484 5.80528C0.771484 5.60768 0.920907 5.48485 1.21975 5.43678L5.23817 4.85199L7.03925 1.20707C7.14064 0.988109 7.27139 0.878628 7.43148 0.878628C7.59158 0.878628 7.72233 0.988109 7.82372 1.20707L9.6248 4.85199L13.6432 5.43678C13.9421 5.48485 14.0915 5.60768 14.0915 5.80528Z" fill="#777777"/>
</svg>
