<svg width="15" height="15" viewBox="0 0 15 15" fill="none" xmlns="http://www.w3.org/2000/svg">
<path d="M14.1308 5.80528C14.1308 5.92277 14.0614 6.05095 13.9225 6.1898L11.0146 9.02563L11.7035 13.031C11.7088 13.0684 11.7115 13.1218 11.7115 13.1913C11.7115 13.3034 11.6835 13.3982 11.6274 13.4756C11.5713 13.5531 11.4899 13.5918 11.3831 13.5918C11.2816 13.5918 11.1748 13.5598 11.0626 13.4957L7.46578 11.6051L3.86892 13.4957C3.75143 13.5598 3.64462 13.5918 3.54849 13.5918C3.43634 13.5918 3.35223 13.5531 3.29615 13.4756C3.24008 13.3982 3.21204 13.3034 3.21204 13.1913C3.21204 13.1592 3.21738 13.1058 3.22806 13.031L3.91699 9.02563L1.00105 6.1898C0.867538 6.04561 0.800781 5.91743 0.800781 5.80528C0.800781 5.60768 0.950317 5.48485 1.24939 5.43678L5.27082 4.85199L7.07325 1.20707C7.17472 0.98811 7.30557 0.878629 7.46578 0.878629C7.626 0.878629 7.75684 0.98811 7.85831 1.20707L9.66075 4.85199L13.6822 5.43678C13.9812 5.48485 14.1308 5.60768 14.1308 5.80528Z" fill="#F27D0C"/>
</svg>
