<svg width="15" height="15" viewBox="0 0 15 15" fill="none" xmlns="http://www.w3.org/2000/svg">
<path d="M14.1308 5.80673C14.1308 5.92413 14.0614 6.05221 13.9225 6.19096L11.0146 9.02466L11.7035 13.0271C11.7088 13.0644 11.7115 13.1178 11.7115 13.1872C11.7115 13.2992 11.6835 13.394 11.6274 13.4713C11.5713 13.5487 11.4899 13.5874 11.3831 13.5874C11.2816 13.5874 11.1748 13.5554 11.0626 13.4913L7.46578 11.6022L3.86892 13.4913C3.75143 13.5554 3.64462 13.5874 3.54849 13.5874C3.43634 13.5874 3.35223 13.5487 3.29615 13.4713C3.24008 13.394 3.21204 13.2992 3.21204 13.1872C3.21204 13.1551 3.21738 13.1018 3.22806 13.0271L3.91699 9.02466L1.00105 6.19096C0.867538 6.04687 0.800781 5.9188 0.800781 5.80673C0.800781 5.60928 0.950317 5.48654 1.24939 5.43851L5.27082 4.85416L7.07325 1.21197C7.17472 0.993171 7.30557 0.883772 7.46578 0.883772C7.626 0.883772 7.75684 0.993171 7.85831 1.21197L9.66075 4.85416L13.6822 5.43851C13.9812 5.48654 14.1308 5.60928 14.1308 5.80673Z" fill="#F27D0C"/>
</svg>
