<svg width="15" height="15" viewBox="0 0 15 15" fill="none" xmlns="http://www.w3.org/2000/svg">
<path d="M14.0915 5.80673C14.0915 5.92413 14.0221 6.05221 13.8834 6.19096L10.9776 9.02466L11.666 13.0271C11.6714 13.0644 11.674 13.1178 11.674 13.1872C11.674 13.2992 11.646 13.394 11.59 13.4713C11.5339 13.5487 11.4526 13.5874 11.3458 13.5874C11.2444 13.5874 11.1377 13.5554 11.0256 13.4913L7.43148 11.6022L3.83733 13.4913C3.71992 13.5554 3.61319 13.5874 3.51713 13.5874C3.40507 13.5874 3.32102 13.5487 3.26498 13.4713C3.20895 13.394 3.18093 13.2992 3.18093 13.1872C3.18093 13.1551 3.18627 13.1018 3.19694 13.0271L3.88535 9.02466L0.971605 6.19096C0.838191 6.04687 0.771484 5.9188 0.771484 5.80673C0.771484 5.60928 0.920907 5.48654 1.21975 5.43851L5.23817 4.85416L7.03925 1.21197C7.14064 0.993171 7.27139 0.883772 7.43148 0.883772C7.59158 0.883772 7.72233 0.993171 7.82372 1.21197L9.6248 4.85416L13.6432 5.43851C13.9421 5.48654 14.0915 5.60928 14.0915 5.80673Z" fill="#777777"/>
</svg>
