<svg width="14" height="15" viewBox="0 0 14 15" fill="none" xmlns="http://www.w3.org/2000/svg">
<path d="M13.7792 5.40538C13.7792 5.52287 13.7098 5.65104 13.5709 5.7899L10.663 8.62573L11.3519 12.6311C11.3573 12.6685 11.36 12.7219 11.36 12.7914C11.36 12.9035 11.3319 12.9983 11.2758 13.0757C11.2198 13.1532 11.1383 13.1919 11.0315 13.1919C10.93 13.1919 10.8232 13.1599 10.7111 13.0958L7.11422 11.2052L3.51736 13.0958C3.39987 13.1599 3.29306 13.1919 3.19693 13.1919C3.08478 13.1919 3.00066 13.1532 2.94459 13.0757C2.88851 12.9983 2.86047 12.9035 2.86047 12.7914C2.86047 12.7593 2.86582 12.7059 2.8765 12.6311L3.56543 8.62573L0.649489 5.7899C0.515976 5.6457 0.449219 5.51753 0.449219 5.40538C0.449219 5.20778 0.598754 5.08495 0.897825 5.03688L4.91926 4.45209L6.72169 0.80717C6.82316 0.588208 6.954 0.478727 7.11422 0.478727C7.27444 0.478727 7.40528 0.588208 7.50675 0.80717L9.30918 4.45209L13.3306 5.03688C13.6297 5.08495 13.7792 5.20778 13.7792 5.40538Z" fill="#F27D0C"/>
</svg>
