<svg width="14" height="8" viewBox="0 0 14 8" fill="none" xmlns="http://www.w3.org/2000/svg">
<path d="M13.5078 0.820312C13.599 0.911458 13.6445 1.01628 13.6445 1.13477C13.6445 1.25326 13.599 1.35807 13.5078 1.44922L7.13672 7.82031C7.04557 7.91146 6.94076 7.95703 6.82227 7.95703C6.70378 7.95703 6.59896 7.91146 6.50781 7.82031L0.136719 1.44922C0.0455729 1.35807 0 1.25326 0 1.13477C0 1.01628 0.0455729 0.911458 0.136719 0.820312L0.820312 0.136719C0.911458 0.0455728 1.01628 0 1.13477 0C1.25326 0 1.35807 0.0455728 1.44922 0.136719L6.82227 5.50977L12.1953 0.136719C12.2865 0.0455728 12.3913 0 12.5098 0C12.6283 0 12.7331 0.0455728 12.8242 0.136719L13.5078 0.820312Z" fill="#777777"/>
</svg>
